#!OML:ASF H:\BabyWalks\Project 1\Capture day 1\Session 1\baby.ASF
:FULLY-SPECIFIED
:DEGREES
538
root -3.81601 9.86802 -1.68121 -548.986 80.1006 -595.514
lowerback 41.0703 -6.41185 9.78262
upperback 3.91932 -2.83288 0.380382
thorax -15.8001 -1.4498 -3.36404
lowerneck -4.45534 -5.01795 11.5764
upperneck -27.4983 -7.31753 -5.48306
head -8.48909 -3.7701 -3.46094
rclavicle -2.46493e-014 5.56597e-015
rhumerus 56.3141 15.5627 -21.4225
rradius 45.9281
rwrist 24.633
rhand -43.8395 3.66012
rfingers 7.12502
rthumb -16.6667 -25.6443
lclavicle -2.46493e-014 5.56597e-015
lhumerus 24.5639 -25.7154 70.4039
lradius 33.856
lwrist -26.067
lhand -56.5897 -67.5735
lfingers 7.12502
lthumb -28.8997 -39.7925
rfemur -57.6726 -32.5443 23.1364
rtibia 128.385
rfoot 16.597 17.5538
rtoes 25.0394
lfemur -42.595 -8.2002 -14.9926
ltibia 101.632
lfoot 19.7125 -20.0857
ltoes 12.8818
539
root -3.77073 9.8595 -1.64343 -550.945 80.8109 -598.12
lowerback 40.8392 -5.86035 9.47909
upperback 3.89469 -2.32006 0.472725
thorax -15.6851 -1.22659 -3.36428
lowerneck -4.48534 -5.17666 11.8103
upperneck -27.4768 -7.70153 -6.10263
head -8.54268 -3.92594 -3.68825
rclavicle -1.51076e-014 -1.0138e-014
rhumerus 57.1238 14.8742 -20.7998
rradius 45.4388
rwrist 24.9857
rhand -43.7114 3.87549
rfingers 7.12502
rthumb -16.5434 -25.4393
lclavicle -1.51076e-014 -1.0138e-014
lhumerus 24.6183 -26.3618 69.8848
lradius 34.3626
lwrist -25.3927
lhand -56.8574 -67.9596
lfingers 7.12502
lthumb -29.1553 -40.2226
rfemur -57.8766 -31.2198 22.947
rtibia 128.47
rfoot 18.5226 17.5871
rtoes 24.9925
lfemur -42.8619 -6.97632 -15.1714
ltibia 101.735
lfoot 19.7661 -20.2949
ltoes 13.0459
540
root -3.72392 9.85192 -1.60364 -553.217 81.4953 -601.042
lowerback 40.6014 -5.31886 9.13644
upperback 3.86923 -1.83512 0.565835
thorax -15.575 -1.01188 -3.32637
lowerneck -4.51189 -5.30525 12.035
upperneck -27.4534 -8.03601 -6.70121
head -8.59332 -4.05819 -3.91091
rclavicle 6.36111e-015 2.90226e-014
rhumerus 57.9019 14.2408 -20.2452
rradius 44.9961
rwrist 25.3465
rhand -43.6653 4.05688
rfingers 7.12502
rthumb -16.499 -25.2616
lclavicle 6.36111e-015 2.90226e-014
lhumerus 24.6491 -26.9963 69.3036
lradius 34.8872
lwrist -24.6967
lhand -57.1327 -68.3882
lfingers 7.12502
lthumb -29.4182 -40.6972
rfemur -58.0844 -29.7999 22.7431
rtibia 128.483
rfoot 20.3613 17.5887
rtoes 24.781
lfemur -43.1451 -5.7679 -15.3247
ltibia 101.834
lfoot 19.797 -20.534
ltoes 13.1925
541
root -3.67468 9.8462 -1.56185 -555.737 82.1366 -604.204
lowerback 40.3657 -4.80503 8.79551
upperback 3.84496 -1.3818 0.64978
thorax -15.4716 -0.809513 -3.28056
lowerneck -4.5392 -5.40917 12.2531
upperneck -27.4273 -8.32708 -7.27066
head -8.63984 -4.17096 -4.12626
rclavicle 1.66979e-014 -1.13307e-014
rhumerus 58.6325 13.6587 -19.7523
rradius 44.6004
rwrist 25.6792
rhand -43.663 4.19053
rfingers 7.12502
rthumb -16.4968 -25.1281
lclavicle 1.66979e-014 -1.13307e-014
lhumerus 24.6739 -27.6281 68.6636
lradius 35.4137
lwrist -23.9849
lhand -57.4077 -68.8792
lfingers 7.12502
lthumb -29.6807 -41.2346
rfemur -58.2852 -28.3127 22.5432
rtibia 128.421
rfoot 22.0014 17.5099
rtoes 24.544
lfemur -43.4356 -4.59018 -15.4414
ltibia 101.921
lfoot 19.7891 -20.8083
ltoes 13.3023
542
root -3.62274 9.84315 -1.51827 -558.452 82.7202 -607.534
lowerback 40.1529 -4.33688 8.48994
upperback 3.82104 -0.967071 0.71277
thorax -15.3834 -0.624675 -3.25411
lowerneck -4.56455 -5.49383 12.4641
upperneck -27.3991 -8.57939 -7.7984
head -8.68221 -4.26767 -4.32931
rclavicle -1.59028e-014 7.55382e-015
rhumerus 59.3027 13.1239 -19.3133
rradius 44.2563
rwrist 25.9394
rhand -43.6674 4.27863
rfingers 7.12502
rthumb -16.501 -25.0397
lclavicle -1.59028e-014 7.55382e-015
lhumerus 24.6995 -28.2569 67.9718
lradius 35.9302
lwrist -23.2659
lhand -57.6671 -69.458
lfingers 7.12502
lthumb -29.9282 -41.8578
rfemur -58.4736 -26.7956 22.3565
rtibia 128.29
rfoot 23.3344 17.3333
rtoes 24.3251
lfemur -43.7233 -3.45713 -15.521
ltibia 101.994
lfoot 19.737 -21.1056
ltoes 13.3705
543
root -3.56795 9.84284 -1.47322 -561.332 83.2358 -610.997
lowerback 39.971 -3.91994 8.23287
upperback 3.79673 -0.592248 0.751171
thorax -15.3129 -0.458952 -3.25801
lowerneck -4.59491 -5.56121 12.6685
upperneck -27.3607 -8.79669 -8.28695
head -8.71623 -4.35031 -4.5207
rclavicle 1.59028e-015 4.07509e-014
rhumerus 59.9018 12.6379 -18.9128
rradius 43.9657
rwrist 26.0959
rhand -43.6572 4.30586
rfingers 7.12502
rthumb -16.4912 -25.0133
lclavicle 1.59028e-015 4.07509e-014
lhumerus 24.7321 -28.8802 67.246
lradius 36.4259
lwrist -22.5507
lhand -57.903 -70.1289
lfingers 7.12502
lthumb -30.1533 -42.5695
rfemur -58.6515 -25.2884 22.1816
rtibia 128.1
rfoot 24.2809 17.0724
rtoes 24.1665
lfemur -44.0049 -2.37937 -15.5722
ltibia 102.055
lfoot 19.6455 -21.4037
ltoes 13.4386
544
root -3.51047 9.84515 -1.42711 -564.275 83.6789 -614.478
lowerback 39.8337 -3.56207 8.04121
upperback 3.77231 -0.259002 0.763312
thorax -15.2633 -0.314138 -3.30283
lowerneck -4.62618 -5.61307 12.8632
upperneck -27.3125 -8.98113 -8.73658
head -8.74225 -4.41963 -4.69961
rclavicle 6.67916e-014 8.28932e-014
rhumerus 60.4238 12.2012 -18.5385
rradius 43.7297
rwrist 26.1458
rhand -43.6165 4.27208
rfingers 7.12502
rthumb -16.452 -25.0503
lclavicle 6.67916e-014 8.28932e-014
lhumerus 24.778 -29.4904 66.4994
lradius 36.8883
lwrist -21.8485
lhand -58.1099 -70.8973
lfingers 7.12502
lthumb -30.3507 -43.3741
rfemur -58.807 -23.8205 22.0196
rtibia 127.855
rfoot 24.7883 16.7433
rtoes 24.1008
lfemur -44.2732 -1.36477 -15.5961
ltibia 102.11
lfoot 19.5217 -21.6866
ltoes 13.498
